<svg xmlns="http://www.w3.org/2000/svg" style="display:none">
  <symbol id="server" viewBox="0 0 640 640">
    <path d="M160 96C124.7 96 96 124.7 96 160L96 224C96 259.3 124.7 288 160 288L480 288C515.3 288 544 259.3 544 224L544 160C544 124.7 515.3 96 480 96L160 96zM376 168C389.3 168 400 178.7 400 192C400 205.3 389.3 216 376 216C362.7 216 352 205.3 352 192C352 178.7 362.7 168 376 168zM432 192C432 178.7 442.7 168 456 168C469.3 168 480 178.7 480 192C480 205.3 469.3 216 456 216C442.7 216 432 205.3 432 192zM160 352C124.7 352 96 380.7 96 416L96 480C96 515.3 124.7 544 160 544L480 544C515.3 544 544 515.3 544 480L544 416C544 380.7 515.3 352 480 352L160 352zM376 424C389.3 424 400 434.7 400 448C400 461.3 389.3 472 376 472C362.7 472 352 461.3 352 448C352 434.7 362.7 424 376 424zM432 448C432 434.7 442.7 424 456 424C469.3 424 480 434.7 480 448C480 461.3 469.3 472 456 472C442.7 472 432 461.3 432 448z"/>
  </symbol>
  <symbol id="check" viewBox="0 0 640 640">
    <path d="M320 576C178.6 576 64 461.4 64 320C64 178.6 178.6 64 320 64C461.4 64 576 178.6 576 320C576 461.4 461.4 576 320 576zM438 209.7C427.3 201.9 412.3 204.3 404.5 215L285.1 379.2L233 327.1C223.6 317.7 208.4 317.7 199.1 327.1C189.8 336.5 189.7 351.7 199.1 361L271.1 433C276.1 438 282.9 440.5 289.9 440C296.9 439.5 303.3 435.9 307.4 430.2L443.3 243.2C451.1 232.5 448.7 217.5 438 209.7z"/>
  </symbol>
  <symbol id="clock" viewBox="0 0 640 640">
    <path d="M320 64C461.4 64 576 178.6 576 320C576 461.4 461.4 576 320 576C178.6 576 64 461.4 64 320C64 178.6 178.6 64 320 64zM296 184L296 320C296 328 300 335.5 306.7 340L402.7 404C413.7 411.4 428.6 408.4 436 397.3C443.4 386.2 440.4 371.4 429.3 364L344 307.2L344 184C344 170.7 333.3 160 320 160C306.7 160 296 170.7 296 184z"/>
  </symbol>
  <symbol id="moon" viewBox="0 0 640 640">
    <path d="M303.3 112.7C196.2 121.2 112 210.8 112 320C112 434.9 205.1 528 320 528C353.3 528 384.7 520.2 412.6 506.3C309.2 482.9 232 390.5 232 280C232 214.2 259.4 154.9 303.3 112.7zM64 320C64 178.6 178.6 64 320 64C339.4 64 358.4 66.2 376.7 70.3C386.6 72.5 394 80.8 395.2 90.8C396.4 100.8 391.2 110.6 382.1 115.2C321.5 145.4 280 207.9 280 280C280 381.6 362.4 464 464 464C469 464 473.9 463.8 478.8 463.4C488.9 462.6 498.4 468.2 502.6 477.5C506.8 486.8 504.6 497.6 497.3 504.6C451.3 548.8 388.8 576 320 576C178.6 576 64 461.4 64 320z"/>
  </symbol>
  <symbol id="github" viewBox="0 0 640 640">
    <path d="M544 160C544 124.7 515.3 96 480 96L160 96C124.7 96 96 124.7 96 160L96 480C96 515.3 124.7 544 160 544L480 544C515.3 544 544 515.3 544 480L544 160zM361.8 471.7C361.8 469.9 361.8 465.7 361.9 460.1C362 448.7 362 431.3 362 416.4C362 400.8 356.8 390.9 350.7 385.7C387.7 381.6 426.7 376.5 426.7 312.6C426.7 294.4 420.2 285.3 409.6 273.6C411.3 269.3 417 251.6 407.9 228.6C394 224.3 362.2 246.5 362.2 246.5C335.6 239 305.6 239 279 246.5C279 246.5 247.2 224.3 233.3 228.6C224.2 251.5 229.8 269.2 231.6 273.6C221 285.3 216 294.4 216 312.6C216 376.2 253.3 381.6 290.3 385.7C285.5 390 281.2 397.4 279.7 408C270.2 412.3 245.9 419.7 231.4 394.1C222.3 378.3 205.9 377 205.9 377C189.7 376.8 204.8 387.2 204.8 387.2C215.6 392.2 223.2 411.4 223.2 411.4C232.9 441.1 279.3 431.1 279.3 431.1C279.3 440.1 279.4 452.8 279.4 461.7C279.4 466.5 279.5 470.3 279.5 471.7C279.5 476 276.5 481.2 268 479.7C202 457.6 155.8 394.8 155.8 321.4C155.8 229.6 226 159.9 317.8 159.9C409.6 159.9 484 229.6 484 321.4C484.1 394.8 439.3 457.7 373.3 479.7C364.9 481.2 361.8 476 361.8 471.7zM271.3 416.9C271.1 415.4 272.4 414.1 274.3 413.7C276.2 413.5 278 414.3 278.2 415.6C278.5 416.9 277.2 418.2 275.2 418.6C273.3 419 271.5 418.2 271.3 416.9zM262.2 420.1C260 420.3 258.5 419.2 258.5 417.7C258.5 416.4 260 415.3 262 415.3C263.9 415.1 265.7 416.2 265.7 417.7C265.7 419 264.2 420.1 262.2 420.1zM247.9 417.9C246 417.5 244.7 416 245.1 414.7C245.5 413.4 247.5 412.8 249.2 413.2C251.2 413.8 252.5 415.3 252 416.6C251.6 417.9 249.6 418.5 247.9 417.9zM235.4 410.6C233.9 409.3 233.5 407.4 234.5 406.5C235.4 405.4 237.3 405.6 238.8 407.1C240.1 408.4 240.6 410.4 239.7 411.2C238.8 412.3 236.9 412.1 235.4 410.6zM226.9 400.6C225.8 399.1 225.8 397.4 226.9 396.7C228 395.8 229.7 396.5 230.6 398C231.7 399.5 231.7 401.3 230.6 402.1C229.7 402.7 228 402.1 226.9 400.6zM220.6 391.8C219.5 390.5 219.3 389 220.2 388.3C221.1 387.4 222.6 387.9 223.7 388.9C224.8 390.2 225 391.7 224.1 392.4C223.2 393.3 221.7 392.8 220.6 391.8zM214.6 385.4C213.3 384.8 212.7 383.7 213.1 382.8C213.5 382.2 214.6 381.9 215.9 382.4C217.2 383.1 217.8 384.2 217.4 385C217 385.9 215.7 386.1 214.6 385.4z"/>
  </symbol>
  <symbol id="linkedin" viewBox="0 0 640 640">
    <path d="M160 96C124.7 96 96 124.7 96 160L96 480C96 515.3 124.7 544 160 544L480 544C515.3 544 544 515.3 544 480L544 160C544 124.7 515.3 96 480 96L160 96zM165 266.2L231.5 266.2L231.5 480L165 480L165 266.2zM236.7 198.5C236.7 219.8 219.5 237 198.2 237C176.9 237 159.7 219.8 159.7 198.5C159.7 177.2 176.9 160 198.2 160C219.5 160 236.7 177.2 236.7 198.5zM413.9 480L413.9 376C413.9 351.2 413.4 319.3 379.4 319.3C344.8 319.3 339.5 346.3 339.5 374.2L339.5 480L273.1 480L273.1 266.2L336.8 266.2L336.8 295.4L337.7 295.4C346.6 278.6 368.3 260.9 400.6 260.9C467.8 260.9 480.3 305.2 480.3 362.8L480.3 480L413.9 480z"/>
  </symbol>
  <symbol id="sun" viewBox="0 0 640 640">
    <path d="M210.2 53.9C217.6 50.8 226 51.7 232.7 56.1L320.5 114.3L408.3 56.1C415 51.7 423.4 50.9 430.8 53.9C438.2 56.9 443.4 63.5 445 71.3L465.9 174.5L569.1 195.4C576.9 197 583.5 202.4 586.5 209.7C589.5 217 588.7 225.5 584.3 232.2L526.1 320L584.3 407.8C588.7 414.5 589.5 422.9 586.5 430.3C583.5 437.7 576.9 443.1 569.1 444.6L465.8 465.4L445 568.7C443.4 576.5 438 583.1 430.7 586.1C423.4 589.1 414.9 588.3 408.2 583.9L320.4 525.7L232.6 583.9C225.9 588.3 217.5 589.1 210.1 586.1C202.7 583.1 197.3 576.5 195.8 568.7L175 465.4L71.7 444.5C63.9 442.9 57.3 437.5 54.3 430.2C51.3 422.9 52.1 414.4 56.5 407.7L114.7 320L56.5 232.2C52.1 225.5 51.3 217.1 54.3 209.7C57.3 202.3 63.9 196.9 71.7 195.4L175 174.6L195.9 71.3C197.5 63.5 202.9 56.9 210.2 53.9zM239.6 320C239.6 275.6 275.6 239.6 320 239.6C364.4 239.6 400.4 275.6 400.4 320C400.4 364.4 364.4 400.4 320 400.4C275.6 400.4 239.6 364.4 239.6 320zM448.4 320C448.4 249.1 390.9 191.6 320 191.6C249.1 191.6 191.6 249.1 191.6 320C191.6 390.9 249.1 448.4 320 448.4C390.9 448.4 448.4 390.9 448.4 320z"/>
  </symbol>
</svg>
